<svg width="30" height="30" fill="none" xmlns="http://www.w3.org/2000/svg"><g clip-path="url(#clip0)"><path fill-rule="evenodd" clip-rule="evenodd" d="M15.547.063l-.356-.136-.356.134-11.258 4.26-.646.245v9.211c0 7.352 5.042 12.367 11.692 16.033l.489.269.485-.274c6.636-3.741 11.684-8.672 11.684-16.028V4.57l-.641-.247L15.547.063zM4.931 13.777v-7.83l9.175-3.471v24.723c-5.588-3.405-9.175-7.668-9.175-13.422zm11.175 13.406c5.595-3.464 9.175-7.657 9.175-13.406V5.944L16.106 2.42v24.763z" fill="#FFB600"/></g><defs><clipPath id="clip0"><path d="M0 0h30v30H0V0z" fill="#fff"/></clipPath></defs></svg>